<svg width="62" height="41" fill="none" xmlns="http://www.w3.org/2000/svg"><path d="M59.456.052H45.879c-1.16 0-2.103.943-2.103 2.103v2.778c0 1.16.943 2.103 2.103 2.103h.197v4.644a5.338 5.338 0 00-3.313-1.15H18.968c-1.25 0-2.401.43-3.314 1.15V7.026h.467c1.16 0 2.103-.944 2.103-2.103V2.145c0-1.16-.943-2.103-2.103-2.103H2.544C1.384.042.441.985.441 2.145v2.778c0 1.16.943 2.103 2.103 2.103h.467v13.095a4.019 4.019 0 003.663 3.997v2.046a2.95 2.95 0 002.947 2.948h2.351v9.836h-1.469a1.026 1.026 0 100 2.052h10.252a1.026 1.026 0 000-2.052h-1.47v-9.836h23.16v9.836h-1.47a1.026 1.026 0 100 2.052h10.252a1.026 1.026 0 000-2.052h-1.469v-9.836h2.351a2.95 2.95 0 002.947-2.948v-2.046a4.019 4.019 0 003.663-3.997V7.035h.737c1.16 0 2.104-.944 2.104-2.103V2.155c0-1.16-.944-2.103-2.104-2.103zm-40.489 12.53h23.796a3.318 3.318 0 013.314 3.314v6.187H15.654v-6.187a3.318 3.318 0 013.314-3.314zM2.545 4.974a.052.052 0 01-.051-.051V2.145c0-.028.023-.051.051-.051h13.577c.028 0 .051.023.051.051v2.778a.052.052 0 01-.051.051H2.544zm4.481 17.109a1.964 1.964 0 01-1.962-1.962V7.026h8.539v15.057H7.025zm10.209 16.865h-3.21v-9.836h3.21v9.836zm30.472 0h-3.21v-9.836h3.21v9.836zm5.298-12.784a.896.896 0 01-.895.896H9.621a.896.896 0 01-.895-.896v-2.03h44.278v2.03zm3.663-6.043c0 1.082-.88 1.962-1.962 1.962H48.13V7.036h8.538v13.085zm2.84-15.188a.052.052 0 01-.05.051h-13.58a.052.052 0 01-.051-.051V2.155c0-.028.023-.051.051-.051h13.577c.028 0 .052.023.052.051v2.778z" fill="#fff"/></svg>