<svg xmlns="http://www.w3.org/2000/svg" xmlns:xlink="http://www.w3.org/1999/xlink"><symbol id="company__icon"><path d="M61.771 62.765h12.693v4.14h-6.038V96h-6.655V62.765zm20.222 20.758l1.14-16.617h.382l1.14 16.617h-2.662zM74.623 96h6.515l.617-8.826h3.138l.62 8.826h6.512l-3.47-33.235H78.094L74.623 96zm26.931-11.632v6.265c0 .845.654 1.09 1.036 1.09.628 0 1.064-.518 1.064-1.09v-7.736c0-1.036-.191-2.18-2.673-2.18h-2.702v-3.65h2.811c1.882 0 2.564-.436 2.564-2.48v-6.592c0-.572-.436-1.09-1.064-1.09-.382 0-1.036.219-1.036 1.09v5.421h-6.658v-4.712c0-2.316.273-5.94 4.939-5.94h5.511c4.666 0 4.966 3.624 4.966 5.94v5.312c0 3.623-2.538 4.604-4.529 4.522v.327c4.474-.11 4.529 3.323 4.529 4.495v6.701c0 2.343-.3 5.939-4.966 5.939h-5.511c-4.666 0-4.939-3.596-4.939-5.939v-5.693h6.658zm13.124-21.603h15.416V96h-6.657V66.906h-2.101V96h-6.658V62.765zm26.44 18.279V66.906h.873c.709 0 1.228.599 1.228 1.661v10.815c0 1.063-.519 1.662-1.228 1.662h-.873zM134.46 96h6.658V84.695h3.82c4.638 0 4.938-3.596 4.938-5.94v-10.05c0-2.316-.3-5.94-4.938-5.94H134.46V96zm28.541-5.367c0 .572-.437 1.09-1.064 1.09-.382 0-1.037-.245-1.037-1.09V67.995c0-.871.655-1.09 1.037-1.09.627 0 1.064.518 1.064 1.09v22.638zm-8.759-.572c0 2.343.301 5.939 4.939 5.939h5.539c4.638 0 4.938-3.596 4.938-5.939V68.704c0-2.316-.3-5.94-4.938-5.94h-5.539c-4.638 0-4.939 3.624-4.939 5.94V90.06zm37.081-27.296H200V96h-6.658V75.16h-.245L189.659 96h-5.321l-3.41-20.84h-.246V96h-6.657V62.765h8.649l4.338 23.373 4.311-23.373zM53.147 17.326C51.109 8.418 46 1.17 45.297 0c-1.113 1.662-5.187 8.064-7.258 15.146-2.262 7.928-2.595 14.956-1.815 21.848.775 6.92 3.703 14.03 3.703 14.03 1.555 3.705 3.886 7.71 5.403 9.67 2.223-2.887 7.334-11.495 8.927-22.719.887-6.266.925-11.741-1.11-20.65zm-7.85 41.135c-1.002-1.88-2.557-5.448-2.704-11.006-.038-5.34 2.109-9.943 2.736-10.896.56.953 2.41 4.958 2.63 10.433.15 5.34-1.628 9.562-2.662 11.469zm7.258-26.016c-.077 3.405-.483 7.001-1.002 9.153.186-3.705-.259-8.908-1.11-12.994-.852-4.06-3.26-10.87-5.184-14.002-1.777 2.996-3.965 8.88-5.11 13.975-1.152 5.094-1.185 11.278-1.185 13.13-.306-1.553-1.07-7.137-.854-12.722.18-4.604 1.26-9.37 1.853-11.55 2.259-7.274 4.815-11.932 5.296-12.668.48.736 3.7 6.484 5.37 12.504 1.66 6.02 1.997 11.796 1.926 15.174z" fill="#fff" fill-opacity=".5"/><path d="M48.753 62.765H33.258v10.38c.013 0 .024-.028.038-.028 3.65-3.65 9.571-3.65 13.225 0 3.65 3.623 3.65 9.534 0 13.185-.017.027-.033.027-.05.054-.018 0-.037.028-.054.055a18.675 18.675 0 01-13.16 5.394c-4.78 0-9.56-1.798-13.205-5.449-6.429-6.401-7.19-16.345-2.29-23.591.66-.98 1.422-1.907 2.29-2.779 3.645-3.65 8.425-5.448 13.206-5.448V29.585C14.889 29.584 0 44.43 0 62.764s14.89 33.208 33.258 33.208c9.577 0 18.204-4.06 24.272-10.516V62.765h-8.777z" fill="#fff" fill-opacity=".5"/></symbol><symbol id="header__icon"><path d="M23.667 12.538h-.944v-.944a1.026 1.026 0 10-2.052 0v.944h-.944a1.026 1.026 0 000 2.052h.944v.944a1.026 1.026 0 102.052 0v-.944h.944a1.026 1.026 0 100-2.052zm18.605 0h-.944v-.944a1.026 1.026 0 00-2.052 0v.944h-.945a1.026 1.026 0 100 2.052h.945v.944a1.026 1.026 0 102.052 0v-.944h.944a1.026 1.026 0 100-2.052zM23.667 26.63h-.944v-.945a1.026 1.026 0 10-2.052 0v.945h-.944a1.026 1.026 0 000 2.051h.944v.945a1.026 1.026 0 102.052 0v-.945h.944a1.026 1.026 0 100-2.052zm18.605 0h-.944v-.945a1.026 1.026 0 10-2.052 0v.945h-.945a1.026 1.026 0 000 2.051h.945v.945a1.026 1.026 0 102.052 0v-.945h.944a1.026 1.026 0 100-2.052z" fill="#fff"/><path d="M59.456 29.052H45.879c-1.16 0-2.103.943-2.103 2.103v2.778c0 1.16.943 2.103 2.103 2.103h.197v4.644a5.338 5.338 0 00-3.313-1.15H18.968c-1.25 0-2.401.43-3.314 1.15v-4.654h.467c1.16 0 2.103-.944 2.103-2.103v-2.778c0-1.16-.943-2.103-2.103-2.103H2.544c-1.16 0-2.103.943-2.103 2.103v2.778c0 1.16.943 2.103 2.103 2.103h.467V49.12a4.019 4.019 0 003.663 3.998v2.046a2.95 2.95 0 002.947 2.948h2.351v9.836h-1.469a1.026 1.026 0 100 2.052h10.252a1.026 1.026 0 000-2.052h-1.47v-9.836h23.16v9.836h-1.47a1.026 1.026 0 100 2.052h10.252a1.026 1.026 0 000-2.052h-1.469v-9.836h2.351a2.95 2.95 0 002.947-2.948v-2.046a4.019 4.019 0 003.663-3.998V36.037h.737c1.16 0 2.104-.944 2.104-2.103v-2.778c0-1.16-.944-2.103-2.104-2.103zm-40.489 12.53h23.796a3.318 3.318 0 013.314 3.314v6.187H15.654v-6.187a3.318 3.318 0 013.314-3.314zM2.545 33.974a.052.052 0 01-.051-.051v-2.778c0-.028.023-.051.051-.051h13.577c.028 0 .051.023.051.051v2.778a.052.052 0 01-.051.051H2.544zm4.481 17.109a1.964 1.964 0 01-1.962-1.962V36.026h8.539v15.057H7.025zm10.209 16.865h-3.21v-9.836h3.21v9.836zm30.472 0h-3.21v-9.836h3.21v9.836zm5.298-12.784a.896.896 0 01-.895.896H9.621a.896.896 0 01-.895-.896v-2.03h44.278v2.03zm3.663-6.043c0 1.081-.88 1.962-1.962 1.962H48.13V36.036h8.538v13.085zm2.84-15.188a.052.052 0 01-.05.051h-13.58a.052.052 0 01-.051-.051v-2.778c0-.028.023-.051.051-.051h13.577c.028 0 .052.023.052.051v2.778zM53.696 8.455C53.696 3.793 49.903 0 45.24 0H16.486c-4.662 0-8.455 3.793-8.455 8.455V25.27a1.026 1.026 0 002.052 0V8.455a6.41 6.41 0 016.403-6.403h28.755a6.411 6.411 0 016.403 6.408l.08 16.814a1.026 1.026 0 001.025 1.02h.005a1.026 1.026 0 001.021-1.03l-.08-16.809z" fill="#fff"/></symbol><symbol id="header__icon4"><path d="M68.927 31.641V1.936c0-.567-.46-1.027-1.027-1.027H2.1c-.567 0-1.027.46-1.027 1.027V31.64A2.011 2.011 0 000 33.418v2.108c0 .77.436 1.44 1.073 1.777v26.761c0 .567.46 1.027 1.027 1.027h65.8c.567 0 1.027-.46 1.027-1.027V37.303A2.011 2.011 0 0070 35.526v-2.108c0-.77-.436-1.44-1.073-1.777zM66.486 2.963c-.412.604-1.171 1.313-2.373 2.068l-.044.028a17.047 17.047 0 01-.315.19l-.169.099-.138.08-.138.076-.173.096-.032.017c-.148.08-.303.16-.46.241l-.128.065-.185.091-.172.084a23.06 23.06 0 01-.834.385l-.068.03c-.42.184-.866.369-1.342.553-.615.239-1.271.475-1.973.707A57.464 57.464 0 0151.84 9.4a1.029 1.029 0 00-.103.016c-2.045.427-4.197.78-6.397 1.045-.028.004-.055.01-.082.015A87.003 87.003 0 0135 11.077a87.05 87.05 0 01-10.257-.6c-.027-.006-.054-.012-.082-.015a75.834 75.834 0 01-6.397-1.046 1.029 1.029 0 00-.103-.016 57.46 57.46 0 01-6.103-1.627 40.953 40.953 0 01-1.973-.707 33.528 33.528 0 01-1.342-.552l-.068-.031a29.615 29.615 0 01-.666-.304l-.168-.08-.172-.084c-.062-.03-.124-.06-.184-.091l-.128-.065c-.156-.08-.309-.16-.456-.24-.012-.006-.025-.012-.036-.019-.06-.031-.116-.063-.173-.095l-.138-.077-.139-.08a18.083 18.083 0 01-.169-.098l-.1-.06a15.709 15.709 0 01-.214-.131l-.045-.028c-1.202-.755-1.961-1.463-2.372-2.068h62.97zM3.126 5.569c.317.274.68.553 1.092.835 1.09.755 2.545 1.54 4.476 2.325C8.692 15.18 6.81 22.359 5.2 27.32a1.027 1.027 0 101.953.634c1.594-4.911 3.444-11.948 3.584-18.461.22.076.445.153.676.229a58.01 58.01 0 005.326 1.467c-2.17 6.735-5.71 12.287-8.361 15.824a1.027 1.027 0 101.643 1.232c2.774-3.7 6.487-9.532 8.739-16.629 1.414.277 2.87.518 4.356.72-2.175 5.33-6.527 10.82-9.916 14.6a1.027 1.027 0 101.53 1.371c6.318-7.048 9.188-12.33 10.49-15.71 3.174.35 6.463.533 9.779.533s6.605-.183 9.779-.534c2.22 5.775 6.89 11.696 10.499 15.721a1.027 1.027 0 001.53-1.37c-3.393-3.784-7.749-9.277-9.925-14.61a76.495 76.495 0 004.356-.72c2.254 7.104 5.974 12.942 8.753 16.646a1.025 1.025 0 001.437.205c.454-.34.546-.984.205-1.437-2.656-3.541-6.201-9.1-8.374-15.842a58.045 58.045 0 005.326-1.467c.23-.076.455-.153.676-.23.14 6.51 1.988 13.543 3.58 18.45a1.027 1.027 0 001.954-.633c-1.609-4.959-3.488-12.133-3.49-18.581 1.93-.785 3.385-1.57 4.476-2.325.412-.282.775-.561 1.091-.835v25.839h-5.696c-1.109 0-2.01.901-2.01 2.01v2.108c0 .546.22 1.041.574 1.404a150.237 150.237 0 00-2.074 6.832H12.333a148.83 148.83 0 00-2.074-6.832c.355-.363.575-.858.575-1.404v-2.108c0-1.108-.902-2.01-2.01-2.01H3.127V5.568zM2.055 35.482v-2.02H8.78v2.02H2.054zm5.284 27.221a.652.652 0 01-.573.334H3.127V37.536h.984c3.74 12.663 4.947 22.043 3.227 25.167zm5.035.334V57.37c0-1.22.993-2.213 2.214-2.213h5.333c1.22 0 2.213.993 2.213 2.213v5.668h-9.76zm11.814 0V57.37c0-1.22.993-2.213 2.214-2.213h5.333c1.22 0 2.213.993 2.213 2.213v5.668h-9.76zm11.814 0V57.37c0-1.22.994-2.213 2.214-2.213h5.333c1.22 0 2.214.993 2.214 2.213v5.668h-9.76zm21.575 0h-9.76V57.37c0-1.22.993-2.213 2.213-2.213h5.333c1.22 0 2.214.993 2.214 2.213v5.668zm2.054 0V57.37a4.272 4.272 0 00-4.268-4.267H50.03a4.258 4.258 0 00-3.24 1.495 4.258 4.258 0 00-3.24-1.495h-5.334a4.259 4.259 0 00-3.24 1.495 4.259 4.259 0 00-3.241-1.495h-5.333a4.259 4.259 0 00-3.24 1.495 4.259 4.259 0 00-3.241-1.495h-5.333a4.272 4.272 0 00-4.268 4.267v5.668h-.877c2.081-5.26-.893-17.612-3.19-25.501h2.045c.97 2.947 2.24 7.096 3.213 11.31a1.027 1.027 0 102-.462c-.198-.862-.41-1.721-.628-2.568h44.236c-.22.855-.434 1.722-.634 2.593a1.027 1.027 0 102.001.462c.974-4.223 2.246-8.382 3.219-11.335h2.045c-2.298 7.889-5.272 20.24-3.19 25.501h-.93zm7.243 0h-3.638a.652.652 0 01-.573-.334c-1.72-3.124-.513-12.504 3.227-25.167h.984v25.501zm1.073-27.555H61.22v-2.02h6.726v2.02z" fill="#fff"/></symbol></svg>